<?xml version="1.0" encoding="UTF-8" standalone="no"?>
<svg
   xmlns:dc="http://purl.org/dc/elements/1.1/"
   xmlns:cc="http://creativecommons.org/ns#"
   xmlns:rdf="http://www.w3.org/1999/02/22-rdf-syntax-ns#"
   xmlns:svg="http://www.w3.org/2000/svg"
   xmlns="http://www.w3.org/2000/svg"
   xmlns:sodipodi="http://sodipodi.sourceforge.net/DTD/sodipodi-0.dtd"
   xmlns:inkscape="http://www.inkscape.org/namespaces/inkscape"
   id="Layer_1"
   data-name="Layer 1"
   width="12.71"
   height="8.79"
   viewBox="0 0 12.71 8.79"
   version="1.1"
   sodipodi:docname="SideArrow.svg"
   inkscape:version="0.92.1 r15371">
  <metadata
     id="metadata15">
    <rdf:RDF>
      <cc:Work
         rdf:about="">
        <dc:format>image/svg+xml</dc:format>
        <dc:type
           rdf:resource="http://purl.org/dc/dcmitype/StillImage" />
        <dc:title>dropdown-arrow</dc:title>
      </cc:Work>
    </rdf:RDF>
  </metadata>
  <defs
     id="defs13" />
  <sodipodi:namedview
     pagecolor="#ffffff"
     bordercolor="#666666"
     borderopacity="1"
     objecttolerance="10"
     gridtolerance="10"
     guidetolerance="10"
     inkscape:pageopacity="0"
     inkscape:pageshadow="2"
     inkscape:window-width="1920"
     inkscape:window-height="1017"
     id="namedview11"
     showgrid="false"
     inkscape:zoom="22.34461"
     inkscape:cx="6.355"
     inkscape:cy="4.395"
     inkscape:window-x="-8"
     inkscape:window-y="-8"
     inkscape:window-maximized="1"
     inkscape:current-layer="Layer_1" />
  <title
     id="title2">dropdown-arrow</title>
  <g
     id="g6"
     transform="rotate(-90,6.3550143,4.3951042)"
     style="opacity:0.1">
    <path
       d="M 12.71,2.44 A 2.41,2.41 0 0 1 12,4.16 L 8.08,8.08 a 2.45,2.45 0 0 1 -3.45,0 L 0.72,4.16 A 2.42,2.42 0 0 1 0,2.44 2.48,2.48 0 0 1 0.71,0.71 C 1,0.47 1.43,0 6.36,0 11.29,0 11.75,0.46 12,0.71 a 2.44,2.44 0 0 1 0.71,1.73 z"
       id="path4"
       inkscape:connector-curvature="0"
       style="fill:#231f20" />
  </g>
  <path
     d="m 9.7499101,4.3901184 a 1.43,1.43 0 0 1 -0.42,1 l -3.92,3.94 a 1.44,1.44 0 0 1 -2,0 c -0.56,-0.56 -0.56,-9.30999996 0,-9.86999996 a 1.44,1.44 0 0 1 2,0 l 3.92,3.91999996 a 1.43,1.43 0 0 1 0.42,1.01 z"
     id="path8"
     inkscape:connector-curvature="0"
     style="fill:#ffffff" />
</svg>
